# xmcd
#
# Track frame offsets:
#       150
#       13773
#       25858
#       38943
#       52883
#       68075
#       79486
#       93910
#       106599
#       120136
#       129098
#       143990
#       156255
#       169817
#       182393
#       193747
#       205471
#       218662
#       230902
#       242781
#
# Disc length: 3452 seconds
#
# Revision: 1
# Processed by: cddbd v1.4PL0 Copyright (c) Steve Scherf et al.
# Submitted via: MusiCat 1.1
#
DISCID=0b0d7a14
DTITLE=Roger Whittaker - Mon Pays Bleu (Les Grands Succès)
DYEAR=1900
DGENRE=
TTITLE0=Après la Guerre (I Don't Believe In It Anymore) 
TTITLE1=Berceuse Pour Mon Amour (Lullaby For My Love)
TTITLE2=Un Éléphant Sur Mon Balcon (Sugar My Tea0
TTITLE3=La Ballade de L'Amour
TTITLE4=Mammy Blue
TTITLE5=Hello! Bonjour! Happy Day!
TTITLE6=Mon Pays Bleu (Durham Town)
TTITLE7=Le Mistral
TTITLE8=Une Rose Pour Isabelle (One Rose For Isabelle)
TTITLE9=Siffleur Mexicain
TTITLE10=Verse Le Vin Leila
TTITLE11=Swaggie (Australian Whistler)
TTITLE12=J'habite Une Étoile
TTITLE13=La Jarretière D'Élisa
TTITLE14=Laissse-moi T'aimer
TTITLE15=Vieux John Est Mort
TTITLE16=Les Yuex Bleus
TTITLE17=Isabelle et Caroline
TTITLE18=Le Dernier Adieu (The Last Farewell)
TTITLE19=Bonne Nuit Maman
EXTD=0\nBMG Canada\nTRI2-1705\n
EXTT0=
EXTT1=
EXTT2=
EXTT3=
EXTT4=
EXTT5=
EXTT6=
EXTT7=
EXTT8=
EXTT9=
EXTT10=
EXTT11=
EXTT12=
EXTT13=
EXTT14=
EXTT15=
EXTT16=
EXTT17=
EXTT18=
EXTT19=
PLAYORDER=
